<svg viewBox="0 0 2384 1684" style="width:100%;height:auto;font-family:-apple-system,SF Pro,sans-serif">
<defs>
  <filter id="shadow"><feDropShadow dx="0" dy="1" stdDeviation="2" flood-opacity="0.15"/></filter>
  <filter id="shadow2"><feDropShadow dx="0" dy="2" stdDeviation="4" flood-opacity="0.2"/></filter>
</defs>
<rect width="2384" height="1684" fill="#F2EFE9"/>
<!-- Floor label -->
<text x="20" y="40" font-size="24" font-weight="700" fill="#333">2F</text>
<rect x="120" y="240" width="280" height="180" rx="8" fill="#1565C0" fill-opacity="0.12" stroke="#1565C0" stroke-width="1.5" filter="url(#shadow)"/>
<text x="260.0" y="322.0" text-anchor="middle" font-size="10" font-weight="600" fill="#333">夜校教室</text>
<text x="260.0" y="340.0" text-anchor="middle" font-size="10" fill="#666">(大)</text>
<rect x="120" y="435" width="280" height="140" rx="8" fill="#1976D2" fill-opacity="0.12" stroke="#1976D2" stroke-width="1.5" filter="url(#shadow)"/>
<text x="260.0" y="497.0" text-anchor="middle" font-size="10" font-weight="600" fill="#333">夜校教室</text>
<text x="260.0" y="515.0" text-anchor="middle" font-size="10" fill="#666">(小)</text>
<rect x="120" y="590" width="280" height="140" rx="8" fill="#00897B" fill-opacity="0.12" stroke="#00897B" stroke-width="1.5" filter="url(#shadow)"/>
<text x="260.0" y="652.0" text-anchor="middle" font-size="12" font-weight="600" fill="#333">共享会客厅</text>
<rect x="120" y="745" width="280" height="70" rx="8" fill="#6B8E9B" fill-opacity="0.12" stroke="#6B8E9B" stroke-width="1.5" filter="url(#shadow)"/>
<text x="260.0" y="772.0" text-anchor="middle" font-size="12" font-weight="600" fill="#333">卫生间</text>
<rect x="440" y="240" width="350" height="280" rx="8" fill="#7B1FA2" fill-opacity="0.12" stroke="#7B1FA2" stroke-width="1.5" filter="url(#shadow)"/>
<text x="615.0" y="372.0" text-anchor="middle" font-size="10" font-weight="600" fill="#333">亲子街区</text>
<text x="615.0" y="390.0" text-anchor="middle" font-size="10" fill="#666">小猪佩奇·棒约翰</text>
<rect x="440" y="535" width="350" height="220" rx="8" fill="#AD1457" fill-opacity="0.12" stroke="#AD1457" stroke-width="1.5" filter="url(#shadow)"/>
<text x="615.0" y="637.0" text-anchor="middle" font-size="12" font-weight="600" fill="#333">时尚服饰</text>
<rect x="830" y="240" width="300" height="200" rx="8" fill="#D32F2F" fill-opacity="0.12" stroke="#D32F2F" stroke-width="1.5" filter="url(#shadow)"/>
<text x="980.0" y="332.0" text-anchor="middle" font-size="12" font-weight="600" fill="#333">电影院售票</text>
<rect x="830" y="455" width="300" height="160" rx="8" fill="#C62828" fill-opacity="0.12" stroke="#C62828" stroke-width="1.5" filter="url(#shadow)"/>
<text x="980.0" y="527.0" text-anchor="middle" font-size="12" font-weight="600" fill="#333">观影厅入口</text>
<rect x="1160" y="240" width="250" height="200" rx="8" fill="#4A148C" fill-opacity="0.12" stroke="#4A148C" stroke-width="1.5" filter="url(#shadow)"/>
<text x="1285.0" y="332.0" text-anchor="middle" font-size="12" font-weight="600" fill="#333">儿童培训</text>
<rect x="1160" y="455" width="250" height="160" rx="8" fill="#6A1B9A" fill-opacity="0.12" stroke="#6A1B9A" stroke-width="1.5" filter="url(#shadow)"/>
<text x="1285.0" y="527.0" text-anchor="middle" font-size="12" font-weight="600" fill="#333">艺术教室</text>
<rect x="830" y="630" width="250" height="100" rx="8" fill="#E91E63" fill-opacity="0.12" stroke="#E91E63" stroke-width="1.5" filter="url(#shadow)"/>
<text x="955.0" y="672.0" text-anchor="middle" font-size="12" font-weight="600" fill="#333">母婴室</text>
<rect x="1100" y="630" width="310" height="100" rx="8" fill="#3E2723" fill-opacity="0.12" stroke="#3E2723" stroke-width="1.5" filter="url(#shadow)"/>
<text x="1255.0" y="672.0" text-anchor="middle" font-size="12" font-weight="600" fill="#333">VIP会客室</text>
<rect x="830" y="745" width="580" height="135" rx="8" fill="#283593" fill-opacity="0.12" stroke="#283593" stroke-width="1.5" filter="url(#shadow)"/>
<text x="1120.0" y="804.5" text-anchor="middle" font-size="12" font-weight="600" fill="#333">教育培训展区</text>
<rect x="430" y="260" width="30" height="30" rx="8" fill="#455A64" fill-opacity="0.12" stroke="#455A64" stroke-width="1.5" filter="url(#shadow)"/>
<text x="445.0" y="267.0" text-anchor="middle" font-size="12" font-weight="600" fill="#333">电梯</text>
<rect x="820" y="260" width="30" height="30" rx="8" fill="#455A64" fill-opacity="0.12" stroke="#455A64" stroke-width="1.5" filter="url(#shadow)"/>
<text x="835.0" y="267.0" text-anchor="middle" font-size="12" font-weight="600" fill="#333">电梯</text>
<rect x="1150" y="260" width="30" height="30" rx="8" fill="#455A64" fill-opacity="0.12" stroke="#455A64" stroke-width="1.5" filter="url(#shadow)"/>
<text x="1165.0" y="267.0" text-anchor="middle" font-size="12" font-weight="600" fill="#333">电梯</text>

<!-- Corridors -->
<rect x="120" y="150" width="2120" height="12" rx="6" fill="#E0E0E0" opacity="0.6"/>
<rect x="120" y="855" width="2120" height="12" rx="6" fill="#E0E0E0" opacity="0.6"/>
<rect x="395" y="150" width="12" height="717" rx="6" fill="#E0E0E0" opacity="0.6"/>
<rect x="810" y="150" width="12" height="717" rx="6" fill="#E0E0E0" opacity="0.6"/>
</svg>